<svg xmlns="http://www.w3.org/2000/svg" viewBox="0 0 512 512">
  <!-- Coral/pink circle background -->
  <circle cx="256" cy="256" r="256" fill="#FF9999"/>
  
  <!-- Document/resume icon -->
  <g transform="translate(140, 100)">
    <!-- Document body -->
    <path d="M 20 0 L 180 0 L 220 40 L 220 312 L 20 312 Z" 
          fill="#E8E8E8" 
          stroke="#4A5568" 
          stroke-width="12" 
          stroke-linejoin="round"/>
    
    <!-- Folded corner -->
    <path d="M 180 0 L 180 40 L 220 40" 
          fill="#FFFFFF" 
          stroke="#4A5568" 
          stroke-width="12" 
          stroke-linejoin="round"/>
    
    <!-- User icon - head -->
    <circle cx="80" cy="90" r="18" fill="#5DADE2" stroke="#4A5568" stroke-width="8"/>
    
    <!-- User icon - body -->
    <path d="M 50 120 Q 50 105 65 105 L 95 105 Q 110 105 110 120 L 110 135 L 50 135 Z" 
          fill="#5DADE2" 
          stroke="#4A5568" 
          stroke-width="8"/>
    
    <!-- Text lines -->
    <rect x="130" y="80" width="50" height="12" rx="6" fill="#D0D0D0"/>
    <rect x="130" y="100" width="70" height="12" rx="6" fill="#D0D0D0"/>
    
    <rect x="50" y="160" width="120" height="12" rx="6" fill="#D0D0D0"/>
    <rect x="50" y="180" width="90" height="12" rx="6" fill="#D0D0D0"/>
    
    <rect x="50" y="210" width="80" height="12" rx="6" fill="#D0D0D0"/>
    <rect x="140" y="210" width="70" height="12" rx="6" fill="#D0D0D0"/>
    
    <rect x="50" y="240" width="100" height="12" rx="6" fill="#D0D0D0"/>
    <rect x="160" y="240" width="50" height="12" rx="6" fill="#D0D0D0"/>
  </g>
</svg>
